<?xml version="1.0" encoding="UTF-8"?>
<svg xmlns="http://www.w3.org/2000/svg" width="128" height="128" viewBox="0 0 128 128">
<g><circle cx="16.0" cy="7.0" r="5.8" fill="#101018"/><line x1="16.0" y1="11.0" x2="16.0" y2="20.0" stroke="#101018" stroke-width="4.80" stroke-linecap="round"/><line x1="16.0" y1="13.0" x2="10.0" y2="15.0" stroke="#101018" stroke-width="4.80" stroke-linecap="round"/><line x1="16.0" y1="13.0" x2="22.0" y2="15.0" stroke="#101018" stroke-width="4.80" stroke-linecap="round"/><line x1="16.0" y1="20.0" x2="12.8" y2="28.0" stroke="#101018" stroke-width="4.80" stroke-linecap="round"/><line x1="16.0" y1="20.0" x2="19.2" y2="28.0" stroke="#101018" stroke-width="4.80" stroke-linecap="round"/><circle cx="16.0" cy="7.0" r="4.6" fill="#33F0FF"/><line x1="16.0" y1="11.0" x2="16.0" y2="20.0" stroke="#33F0FF" stroke-width="2.60" stroke-linecap="round"/><line x1="16.0" y1="13.0" x2="10.0" y2="15.0" stroke="#33F0FF" stroke-width="2.60" stroke-linecap="round"/><line x1="16.0" y1="13.0" x2="22.0" y2="15.0" stroke="#33F0FF" stroke-width="2.60" stroke-linecap="round"/><line x1="16.0" y1="20.0" x2="12.8" y2="28.0" stroke="#33F0FF" stroke-width="2.60" stroke-linecap="round"/><line x1="16.0" y1="20.0" x2="19.2" y2="28.0" stroke="#33F0FF" stroke-width="2.60" stroke-linecap="round"/></g><g><circle cx="48.0" cy="7.8" r="5.8" fill="#101018"/><line x1="48.0" y1="11.8" x2="48.0" y2="20.8" stroke="#101018" stroke-width="4.80" stroke-linecap="round"/><line x1="48.0" y1="13.8" x2="42.0" y2="16.4" stroke="#101018" stroke-width="4.80" stroke-linecap="round"/><line x1="48.0" y1="13.8" x2="54.0" y2="15.2" stroke="#101018" stroke-width="4.80" stroke-linecap="round"/><line x1="48.0" y1="20.8" x2="44.8" y2="28.8" stroke="#101018" stroke-width="4.80" stroke-linecap="round"/><line x1="48.0" y1="20.8" x2="51.2" y2="28.8" stroke="#101018" stroke-width="4.80" stroke-linecap="round"/><circle cx="48.0" cy="7.8" r="4.6" fill="#33F0FF"/><line x1="48.0" y1="11.8" x2="48.0" y2="20.8" stroke="#33F0FF" stroke-width="2.60" stroke-linecap="round"/><line x1="48.0" y1="13.8" x2="42.0" y2="16.4" stroke="#33F0FF" stroke-width="2.60" stroke-linecap="round"/><line x1="48.0" y1="13.8" x2="54.0" y2="15.2" stroke="#33F0FF" stroke-width="2.60" stroke-linecap="round"/><line x1="48.0" y1="20.8" x2="44.8" y2="28.8" stroke="#33F0FF" stroke-width="2.60" stroke-linecap="round"/><line x1="48.0" y1="20.8" x2="51.2" y2="28.8" stroke="#33F0FF" stroke-width="2.60" stroke-linecap="round"/></g><g><circle cx="80.0" cy="7.0" r="5.8" fill="#101018"/><line x1="80.0" y1="11.0" x2="80.0" y2="20.0" stroke="#101018" stroke-width="4.80" stroke-linecap="round"/><line x1="80.0" y1="13.0" x2="74.0" y2="15.0" stroke="#101018" stroke-width="4.80" stroke-linecap="round"/><line x1="80.0" y1="13.0" x2="86.0" y2="15.0" stroke="#101018" stroke-width="4.80" stroke-linecap="round"/><line x1="80.0" y1="20.0" x2="76.8" y2="28.0" stroke="#101018" stroke-width="4.80" stroke-linecap="round"/><line x1="80.0" y1="20.0" x2="83.2" y2="28.0" stroke="#101018" stroke-width="4.80" stroke-linecap="round"/><circle cx="80.0" cy="7.0" r="4.6" fill="#33F0FF"/><line x1="80.0" y1="11.0" x2="80.0" y2="20.0" stroke="#33F0FF" stroke-width="2.60" stroke-linecap="round"/><line x1="80.0" y1="13.0" x2="74.0" y2="15.0" stroke="#33F0FF" stroke-width="2.60" stroke-linecap="round"/><line x1="80.0" y1="13.0" x2="86.0" y2="15.0" stroke="#33F0FF" stroke-width="2.60" stroke-linecap="round"/><line x1="80.0" y1="20.0" x2="76.8" y2="28.0" stroke="#33F0FF" stroke-width="2.60" stroke-linecap="round"/><line x1="80.0" y1="20.0" x2="83.2" y2="28.0" stroke="#33F0FF" stroke-width="2.60" stroke-linecap="round"/></g><g><circle cx="112.0" cy="7.8" r="5.8" fill="#101018"/><line x1="112.0" y1="11.8" x2="112.0" y2="20.8" stroke="#101018" stroke-width="4.80" stroke-linecap="round"/><line x1="112.0" y1="13.8" x2="106.0" y2="15.2" stroke="#101018" stroke-width="4.80" stroke-linecap="round"/><line x1="112.0" y1="13.8" x2="118.0" y2="16.4" stroke="#101018" stroke-width="4.80" stroke-linecap="round"/><line x1="112.0" y1="20.8" x2="108.8" y2="28.8" stroke="#101018" stroke-width="4.80" stroke-linecap="round"/><line x1="112.0" y1="20.8" x2="115.2" y2="28.8" stroke="#101018" stroke-width="4.80" stroke-linecap="round"/><circle cx="112.0" cy="7.8" r="4.6" fill="#33F0FF"/><line x1="112.0" y1="11.8" x2="112.0" y2="20.8" stroke="#33F0FF" stroke-width="2.60" stroke-linecap="round"/><line x1="112.0" y1="13.8" x2="106.0" y2="15.2" stroke="#33F0FF" stroke-width="2.60" stroke-linecap="round"/><line x1="112.0" y1="13.8" x2="118.0" y2="16.4" stroke="#33F0FF" stroke-width="2.60" stroke-linecap="round"/><line x1="112.0" y1="20.8" x2="108.8" y2="28.8" stroke="#33F0FF" stroke-width="2.60" stroke-linecap="round"/><line x1="112.0" y1="20.8" x2="115.2" y2="28.8" stroke="#33F0FF" stroke-width="2.60" stroke-linecap="round"/></g><g><circle cx="16.0" cy="39.0" r="5.8" fill="#101018"/><line x1="16.0" y1="43.0" x2="16.0" y2="52.0" stroke="#101018" stroke-width="4.80" stroke-linecap="round"/><line x1="16.0" y1="45.0" x2="11.0" y2="46.0" stroke="#101018" stroke-width="4.80" stroke-linecap="round"/><line x1="16.0" y1="45.0" x2="21.0" y2="46.0" stroke="#101018" stroke-width="4.80" stroke-linecap="round"/><line x1="16.0" y1="52.0" x2="13.2" y2="60.0" stroke="#101018" stroke-width="4.80" stroke-linecap="round"/><line x1="16.0" y1="52.0" x2="18.8" y2="60.0" stroke="#101018" stroke-width="4.80" stroke-linecap="round"/><circle cx="16.0" cy="39.0" r="4.6" fill="#33F0FF"/><line x1="16.0" y1="43.0" x2="16.0" y2="52.0" stroke="#33F0FF" stroke-width="2.60" stroke-linecap="round"/><line x1="16.0" y1="45.0" x2="11.0" y2="46.0" stroke="#33F0FF" stroke-width="2.60" stroke-linecap="round"/><line x1="16.0" y1="45.0" x2="21.0" y2="46.0" stroke="#33F0FF" stroke-width="2.60" stroke-linecap="round"/><line x1="16.0" y1="52.0" x2="13.2" y2="60.0" stroke="#33F0FF" stroke-width="2.60" stroke-linecap="round"/><line x1="16.0" y1="52.0" x2="18.8" y2="60.0" stroke="#33F0FF" stroke-width="2.60" stroke-linecap="round"/></g><g><circle cx="48.0" cy="39.0" r="5.8" fill="#101018"/><line x1="48.0" y1="43.0" x2="48.0" y2="52.0" stroke="#101018" stroke-width="4.80" stroke-linecap="round"/><line x1="48.0" y1="45.0" x2="43.0" y2="49.2" stroke="#101018" stroke-width="4.80" stroke-linecap="round"/><line x1="48.0" y1="45.0" x2="53.0" y2="42.8" stroke="#101018" stroke-width="4.80" stroke-linecap="round"/><line x1="48.0" y1="52.0" x2="42.4" y2="60.0" stroke="#101018" stroke-width="4.80" stroke-linecap="round"/><line x1="48.0" y1="52.0" x2="53.6" y2="60.0" stroke="#101018" stroke-width="4.80" stroke-linecap="round"/><circle cx="48.0" cy="39.0" r="4.6" fill="#33F0FF"/><line x1="48.0" y1="43.0" x2="48.0" y2="52.0" stroke="#33F0FF" stroke-width="2.60" stroke-linecap="round"/><line x1="48.0" y1="45.0" x2="43.0" y2="49.2" stroke="#33F0FF" stroke-width="2.60" stroke-linecap="round"/><line x1="48.0" y1="45.0" x2="53.0" y2="42.8" stroke="#33F0FF" stroke-width="2.60" stroke-linecap="round"/><line x1="48.0" y1="52.0" x2="42.4" y2="60.0" stroke="#33F0FF" stroke-width="2.60" stroke-linecap="round"/><line x1="48.0" y1="52.0" x2="53.6" y2="60.0" stroke="#33F0FF" stroke-width="2.60" stroke-linecap="round"/></g><g><circle cx="80.0" cy="39.0" r="5.8" fill="#101018"/><line x1="80.0" y1="43.0" x2="80.0" y2="52.0" stroke="#101018" stroke-width="4.80" stroke-linecap="round"/><line x1="80.0" y1="45.0" x2="75.0" y2="46.0" stroke="#101018" stroke-width="4.80" stroke-linecap="round"/><line x1="80.0" y1="45.0" x2="85.0" y2="46.0" stroke="#101018" stroke-width="4.80" stroke-linecap="round"/><line x1="80.0" y1="52.0" x2="77.2" y2="60.0" stroke="#101018" stroke-width="4.80" stroke-linecap="round"/><line x1="80.0" y1="52.0" x2="82.8" y2="60.0" stroke="#101018" stroke-width="4.80" stroke-linecap="round"/><circle cx="80.0" cy="39.0" r="4.6" fill="#33F0FF"/><line x1="80.0" y1="43.0" x2="80.0" y2="52.0" stroke="#33F0FF" stroke-width="2.60" stroke-linecap="round"/><line x1="80.0" y1="45.0" x2="75.0" y2="46.0" stroke="#33F0FF" stroke-width="2.60" stroke-linecap="round"/><line x1="80.0" y1="45.0" x2="85.0" y2="46.0" stroke="#33F0FF" stroke-width="2.60" stroke-linecap="round"/><line x1="80.0" y1="52.0" x2="77.2" y2="60.0" stroke="#33F0FF" stroke-width="2.60" stroke-linecap="round"/><line x1="80.0" y1="52.0" x2="82.8" y2="60.0" stroke="#33F0FF" stroke-width="2.60" stroke-linecap="round"/></g><g><circle cx="112.0" cy="39.0" r="5.8" fill="#101018"/><line x1="112.0" y1="43.0" x2="112.0" y2="52.0" stroke="#101018" stroke-width="4.80" stroke-linecap="round"/><line x1="112.0" y1="45.0" x2="107.0" y2="42.8" stroke="#101018" stroke-width="4.80" stroke-linecap="round"/><line x1="112.0" y1="45.0" x2="117.0" y2="49.2" stroke="#101018" stroke-width="4.80" stroke-linecap="round"/><line x1="112.0" y1="52.0" x2="112.0" y2="60.0" stroke="#101018" stroke-width="4.80" stroke-linecap="round"/><line x1="112.0" y1="52.0" x2="112.0" y2="60.0" stroke="#101018" stroke-width="4.80" stroke-linecap="round"/><circle cx="112.0" cy="39.0" r="4.6" fill="#33F0FF"/><line x1="112.0" y1="43.0" x2="112.0" y2="52.0" stroke="#33F0FF" stroke-width="2.60" stroke-linecap="round"/><line x1="112.0" y1="45.0" x2="107.0" y2="42.8" stroke="#33F0FF" stroke-width="2.60" stroke-linecap="round"/><line x1="112.0" y1="45.0" x2="117.0" y2="49.2" stroke="#33F0FF" stroke-width="2.60" stroke-linecap="round"/><line x1="112.0" y1="52.0" x2="112.0" y2="60.0" stroke="#33F0FF" stroke-width="2.60" stroke-linecap="round"/><line x1="112.0" y1="52.0" x2="112.0" y2="60.0" stroke="#33F0FF" stroke-width="2.60" stroke-linecap="round"/></g><g><circle cx="16.0" cy="71.0" r="5.8" fill="#101018"/><line x1="16.0" y1="75.0" x2="16.0" y2="84.0" stroke="#101018" stroke-width="4.80" stroke-linecap="round"/><line x1="16.0" y1="77.0" x2="10.0" y2="70.6" stroke="#101018" stroke-width="4.80" stroke-linecap="round"/><line x1="16.0" y1="77.0" x2="22.0" y2="70.6" stroke="#101018" stroke-width="4.80" stroke-linecap="round"/><line x1="16.0" y1="84.0" x2="12.0" y2="90.8" stroke="#101018" stroke-width="4.80" stroke-linecap="round"/><line x1="16.0" y1="84.0" x2="20.0" y2="90.8" stroke="#101018" stroke-width="4.80" stroke-linecap="round"/><circle cx="16.0" cy="71.0" r="4.6" fill="#33F0FF"/><line x1="16.0" y1="75.0" x2="16.0" y2="84.0" stroke="#33F0FF" stroke-width="2.60" stroke-linecap="round"/><line x1="16.0" y1="77.0" x2="10.0" y2="70.6" stroke="#33F0FF" stroke-width="2.60" stroke-linecap="round"/><line x1="16.0" y1="77.0" x2="22.0" y2="70.6" stroke="#33F0FF" stroke-width="2.60" stroke-linecap="round"/><line x1="16.0" y1="84.0" x2="12.0" y2="90.8" stroke="#33F0FF" stroke-width="2.60" stroke-linecap="round"/><line x1="16.0" y1="84.0" x2="20.0" y2="90.8" stroke="#33F0FF" stroke-width="2.60" stroke-linecap="round"/></g><g><circle cx="48.0" cy="69.4" r="5.8" fill="#101018"/><line x1="48.0" y1="73.4" x2="48.0" y2="82.4" stroke="#101018" stroke-width="4.80" stroke-linecap="round"/><line x1="48.0" y1="75.4" x2="42.0" y2="69.0" stroke="#101018" stroke-width="4.80" stroke-linecap="round"/><line x1="48.0" y1="75.4" x2="54.0" y2="69.0" stroke="#101018" stroke-width="4.80" stroke-linecap="round"/><line x1="48.0" y1="82.4" x2="42.8" y2="89.2" stroke="#101018" stroke-width="4.80" stroke-linecap="round"/><line x1="48.0" y1="82.4" x2="53.2" y2="89.2" stroke="#101018" stroke-width="4.80" stroke-linecap="round"/><circle cx="48.0" cy="69.4" r="4.6" fill="#33F0FF"/><line x1="48.0" y1="73.4" x2="48.0" y2="82.4" stroke="#33F0FF" stroke-width="2.60" stroke-linecap="round"/><line x1="48.0" y1="75.4" x2="42.0" y2="69.0" stroke="#33F0FF" stroke-width="2.60" stroke-linecap="round"/><line x1="48.0" y1="75.4" x2="54.0" y2="69.0" stroke="#33F0FF" stroke-width="2.60" stroke-linecap="round"/><line x1="48.0" y1="82.4" x2="42.8" y2="89.2" stroke="#33F0FF" stroke-width="2.60" stroke-linecap="round"/><line x1="48.0" y1="82.4" x2="53.2" y2="89.2" stroke="#33F0FF" stroke-width="2.60" stroke-linecap="round"/></g><g><circle cx="80.0" cy="71.0" r="5.8" fill="#101018"/><line x1="80.0" y1="75.0" x2="80.0" y2="84.0" stroke="#101018" stroke-width="4.80" stroke-linecap="round"/><line x1="80.0" y1="77.0" x2="74.0" y2="70.6" stroke="#101018" stroke-width="4.80" stroke-linecap="round"/><line x1="80.0" y1="77.0" x2="86.0" y2="70.6" stroke="#101018" stroke-width="4.80" stroke-linecap="round"/><line x1="80.0" y1="84.0" x2="76.0" y2="90.8" stroke="#101018" stroke-width="4.80" stroke-linecap="round"/><line x1="80.0" y1="84.0" x2="84.0" y2="90.8" stroke="#101018" stroke-width="4.80" stroke-linecap="round"/><circle cx="80.0" cy="71.0" r="4.6" fill="#33F0FF"/><line x1="80.0" y1="75.0" x2="80.0" y2="84.0" stroke="#33F0FF" stroke-width="2.60" stroke-linecap="round"/><line x1="80.0" y1="77.0" x2="74.0" y2="70.6" stroke="#33F0FF" stroke-width="2.60" stroke-linecap="round"/><line x1="80.0" y1="77.0" x2="86.0" y2="70.6" stroke="#33F0FF" stroke-width="2.60" stroke-linecap="round"/><line x1="80.0" y1="84.0" x2="76.0" y2="90.8" stroke="#33F0FF" stroke-width="2.60" stroke-linecap="round"/><line x1="80.0" y1="84.0" x2="84.0" y2="90.8" stroke="#33F0FF" stroke-width="2.60" stroke-linecap="round"/></g><g><circle cx="112.0" cy="69.4" r="5.8" fill="#101018"/><line x1="112.0" y1="73.4" x2="112.0" y2="82.4" stroke="#101018" stroke-width="4.80" stroke-linecap="round"/><line x1="112.0" y1="75.4" x2="106.0" y2="69.0" stroke="#101018" stroke-width="4.80" stroke-linecap="round"/><line x1="112.0" y1="75.4" x2="118.0" y2="69.0" stroke="#101018" stroke-width="4.80" stroke-linecap="round"/><line x1="112.0" y1="82.4" x2="106.8" y2="89.2" stroke="#101018" stroke-width="4.80" stroke-linecap="round"/><line x1="112.0" y1="82.4" x2="117.2" y2="89.2" stroke="#101018" stroke-width="4.80" stroke-linecap="round"/><circle cx="112.0" cy="69.4" r="4.6" fill="#33F0FF"/><line x1="112.0" y1="73.4" x2="112.0" y2="82.4" stroke="#33F0FF" stroke-width="2.60" stroke-linecap="round"/><line x1="112.0" y1="75.4" x2="106.0" y2="69.0" stroke="#33F0FF" stroke-width="2.60" stroke-linecap="round"/><line x1="112.0" y1="75.4" x2="118.0" y2="69.0" stroke="#33F0FF" stroke-width="2.60" stroke-linecap="round"/><line x1="112.0" y1="82.4" x2="106.8" y2="89.2" stroke="#33F0FF" stroke-width="2.60" stroke-linecap="round"/><line x1="112.0" y1="82.4" x2="117.2" y2="89.2" stroke="#33F0FF" stroke-width="2.60" stroke-linecap="round"/></g><g><circle cx="16.0" cy="103.0" r="5.8" fill="#101018"/><line x1="16.0" y1="107.0" x2="16.0" y2="116.0" stroke="#101018" stroke-width="4.80" stroke-linecap="round"/><line x1="16.0" y1="109.0" x2="11.0" y2="111.0" stroke="#101018" stroke-width="4.80" stroke-linecap="round"/><line x1="16.0" y1="109.0" x2="22.0" y2="102.0" stroke="#101018" stroke-width="4.80" stroke-linecap="round"/><line x1="16.0" y1="116.0" x2="12.8" y2="124.0" stroke="#101018" stroke-width="4.80" stroke-linecap="round"/><line x1="16.0" y1="116.0" x2="19.2" y2="124.0" stroke="#101018" stroke-width="4.80" stroke-linecap="round"/><circle cx="16.0" cy="103.0" r="4.6" fill="#33F0FF"/><line x1="16.0" y1="107.0" x2="16.0" y2="116.0" stroke="#33F0FF" stroke-width="2.60" stroke-linecap="round"/><line x1="16.0" y1="109.0" x2="11.0" y2="111.0" stroke="#33F0FF" stroke-width="2.60" stroke-linecap="round"/><line x1="16.0" y1="109.0" x2="22.0" y2="102.0" stroke="#33F0FF" stroke-width="2.60" stroke-linecap="round"/><line x1="16.0" y1="116.0" x2="12.8" y2="124.0" stroke="#33F0FF" stroke-width="2.60" stroke-linecap="round"/><line x1="16.0" y1="116.0" x2="19.2" y2="124.0" stroke="#33F0FF" stroke-width="2.60" stroke-linecap="round"/></g><g><circle cx="48.0" cy="103.0" r="5.8" fill="#101018"/><line x1="48.0" y1="107.0" x2="48.0" y2="116.0" stroke="#101018" stroke-width="4.80" stroke-linecap="round"/><line x1="48.0" y1="109.0" x2="43.0" y2="111.0" stroke="#101018" stroke-width="4.80" stroke-linecap="round"/><line x1="48.0" y1="109.0" x2="55.2" y2="102.0" stroke="#101018" stroke-width="4.80" stroke-linecap="round"/><line x1="48.0" y1="116.0" x2="44.8" y2="124.0" stroke="#101018" stroke-width="4.80" stroke-linecap="round"/><line x1="48.0" y1="116.0" x2="51.2" y2="124.0" stroke="#101018" stroke-width="4.80" stroke-linecap="round"/><circle cx="48.0" cy="103.0" r="4.6" fill="#33F0FF"/><line x1="48.0" y1="107.0" x2="48.0" y2="116.0" stroke="#33F0FF" stroke-width="2.60" stroke-linecap="round"/><line x1="48.0" y1="109.0" x2="43.0" y2="111.0" stroke="#33F0FF" stroke-width="2.60" stroke-linecap="round"/><line x1="48.0" y1="109.0" x2="55.2" y2="102.0" stroke="#33F0FF" stroke-width="2.60" stroke-linecap="round"/><line x1="48.0" y1="116.0" x2="44.8" y2="124.0" stroke="#33F0FF" stroke-width="2.60" stroke-linecap="round"/><line x1="48.0" y1="116.0" x2="51.2" y2="124.0" stroke="#33F0FF" stroke-width="2.60" stroke-linecap="round"/></g><g><circle cx="80.0" cy="103.0" r="5.8" fill="#101018"/><line x1="80.0" y1="107.0" x2="80.0" y2="116.0" stroke="#101018" stroke-width="4.80" stroke-linecap="round"/><line x1="80.0" y1="109.0" x2="75.0" y2="111.0" stroke="#101018" stroke-width="4.80" stroke-linecap="round"/><line x1="80.0" y1="109.0" x2="86.0" y2="102.0" stroke="#101018" stroke-width="4.80" stroke-linecap="round"/><line x1="80.0" y1="116.0" x2="76.8" y2="124.0" stroke="#101018" stroke-width="4.80" stroke-linecap="round"/><line x1="80.0" y1="116.0" x2="83.2" y2="124.0" stroke="#101018" stroke-width="4.80" stroke-linecap="round"/><circle cx="80.0" cy="103.0" r="4.6" fill="#33F0FF"/><line x1="80.0" y1="107.0" x2="80.0" y2="116.0" stroke="#33F0FF" stroke-width="2.60" stroke-linecap="round"/><line x1="80.0" y1="109.0" x2="75.0" y2="111.0" stroke="#33F0FF" stroke-width="2.60" stroke-linecap="round"/><line x1="80.0" y1="109.0" x2="86.0" y2="102.0" stroke="#33F0FF" stroke-width="2.60" stroke-linecap="round"/><line x1="80.0" y1="116.0" x2="76.8" y2="124.0" stroke="#33F0FF" stroke-width="2.60" stroke-linecap="round"/><line x1="80.0" y1="116.0" x2="83.2" y2="124.0" stroke="#33F0FF" stroke-width="2.60" stroke-linecap="round"/></g><g><circle cx="112.0" cy="103.0" r="5.8" fill="#101018"/><line x1="112.0" y1="107.0" x2="112.0" y2="116.0" stroke="#101018" stroke-width="4.80" stroke-linecap="round"/><line x1="112.0" y1="109.0" x2="107.0" y2="111.0" stroke="#101018" stroke-width="4.80" stroke-linecap="round"/><line x1="112.0" y1="109.0" x2="116.8" y2="102.0" stroke="#101018" stroke-width="4.80" stroke-linecap="round"/><line x1="112.0" y1="116.0" x2="108.8" y2="124.0" stroke="#101018" stroke-width="4.80" stroke-linecap="round"/><line x1="112.0" y1="116.0" x2="115.2" y2="124.0" stroke="#101018" stroke-width="4.80" stroke-linecap="round"/><circle cx="112.0" cy="103.0" r="4.6" fill="#33F0FF"/><line x1="112.0" y1="107.0" x2="112.0" y2="116.0" stroke="#33F0FF" stroke-width="2.60" stroke-linecap="round"/><line x1="112.0" y1="109.0" x2="107.0" y2="111.0" stroke="#33F0FF" stroke-width="2.60" stroke-linecap="round"/><line x1="112.0" y1="109.0" x2="116.8" y2="102.0" stroke="#33F0FF" stroke-width="2.60" stroke-linecap="round"/><line x1="112.0" y1="116.0" x2="108.8" y2="124.0" stroke="#33F0FF" stroke-width="2.60" stroke-linecap="round"/><line x1="112.0" y1="116.0" x2="115.2" y2="124.0" stroke="#33F0FF" stroke-width="2.60" stroke-linecap="round"/></g>
</svg>
