<?xml version="1.0" encoding="UTF-8"?>
<svg xmlns="http://www.w3.org/2000/svg" width="128" height="32" viewBox="0 0 128 32">
  <defs>
    <style>
      text { font-family: monospace; font-size: 10px; fill: #666; }
      .grid-line { stroke: #ddd; stroke-width: 0.5; }
    </style>
  </defs>
  <!-- Background grid -->
  <rect width="128" height="32" fill="#f5f5f5"/><line class="grid-line" x1="0" y1="0" x2="0" y2="32"/><line class="grid-line" x1="32" y1="0" x2="32" y2="32"/><line class="grid-line" x1="64" y1="0" x2="64" y2="32"/><line class="grid-line" x1="96" y1="0" x2="96" y2="32"/><line class="grid-line" x1="128" y1="0" x2="128" y2="32"/><line class="grid-line" x1="0" y1="0" x2="128" y2="0"/><line class="grid-line" x1="0" y1="32" x2="128" y2="32"/><rect x="0" y="0" width="32" height="32" fill="white" stroke="#ccc" stroke-width="0.5"/><g data-pose="idle"><circle cx="16" cy="8" r="4" fill="#888" stroke="#888" stroke-width="1"/><line x1="16" y1="12" x2="16" y2="20" stroke="#888" stroke-width="2" stroke-linecap="round"/><line x1="10" y1="15" x2="22" y2="15" stroke="#888" stroke-width="2" stroke-linecap="round"/><line x1="13" y1="20" x2="13" y2="24" stroke="#888" stroke-width="2" stroke-linecap="round"/><line x1="19" y1="20" x2="19" y2="24" stroke="#888" stroke-width="2" stroke-linecap="round"/></g><text x="2" y="30">idle</text><rect x="32" y="0" width="32" height="32" fill="white" stroke="#ccc" stroke-width="0.5"/><g data-pose="walk"><circle cx="48" cy="8" r="4" fill="#888" stroke="#888" stroke-width="1"/><line x1="48" y1="12" x2="48" y2="20" stroke="#888" stroke-width="2" stroke-linecap="round"/><line x1="42" y1="11" x2="48" y2="15" stroke="#888" stroke-width="2" stroke-linecap="round"/><line x1="54" y1="19" x2="48" y2="15" stroke="#888" stroke-width="2" stroke-linecap="round"/><line x1="45" y1="20" x2="45" y2="24" stroke="#888" stroke-width="2" stroke-linecap="round"/><line x1="51" y1="20" x2="51" y2="24" stroke="#888" stroke-width="2" stroke-linecap="round"/></g><text x="34" y="30">walk</text><rect x="64" y="0" width="32" height="32" fill="white" stroke="#ccc" stroke-width="0.5"/><g data-pose="jump"><circle cx="80" cy="8" r="4" fill="#888" stroke="#888" stroke-width="1"/><line x1="80" y1="12" x2="80" y2="20" stroke="#888" stroke-width="2" stroke-linecap="round"/><line x1="74" y1="9" x2="80" y2="15" stroke="#888" stroke-width="2" stroke-linecap="round"/><line x1="86" y1="9" x2="80" y2="15" stroke="#888" stroke-width="2" stroke-linecap="round"/><line x1="77" y1="20" x2="77" y2="24" stroke="#888" stroke-width="2" stroke-linecap="round"/><line x1="83" y1="20" x2="83" y2="24" stroke="#888" stroke-width="2" stroke-linecap="round"/></g><text x="66" y="30">jump</text><rect x="96" y="0" width="32" height="32" fill="white" stroke="#ccc" stroke-width="0.5"/><g data-pose="interact"><circle cx="112" cy="8" r="4" fill="#888" stroke="#888" stroke-width="1"/><line x1="112" y1="12" x2="112" y2="20" stroke="#888" stroke-width="2" stroke-linecap="round"/><line x1="106" y1="11" x2="112" y2="15" stroke="#888" stroke-width="2" stroke-linecap="round"/><line x1="118" y1="17" x2="112" y2="15" stroke="#888" stroke-width="2" stroke-linecap="round"/><line x1="109" y1="20" x2="109" y2="24" stroke="#888" stroke-width="2" stroke-linecap="round"/><line x1="115" y1="20" x2="115" y2="24" stroke="#888" stroke-width="2" stroke-linecap="round"/></g><text x="98" y="30">interact</text>
</svg>