<?xml version="1.0" encoding="UTF-8"?>
<svg xmlns="http://www.w3.org/2000/svg" width="96" height="24" viewBox="0 0 96 24">
  <defs>
    <style>
      text { font-family: monospace; font-size: 10px; fill: #666; }
      .grid-line { stroke: #ddd; stroke-width: 0.5; }
    </style>
  </defs>
  <!-- Background grid -->
  <rect width="96" height="24" fill="#f5f5f5"/><line class="grid-line" x1="0" y1="0" x2="0" y2="24"/><line class="grid-line" x1="24" y1="0" x2="24" y2="24"/><line class="grid-line" x1="48" y1="0" x2="48" y2="24"/><line class="grid-line" x1="72" y1="0" x2="72" y2="24"/><line class="grid-line" x1="96" y1="0" x2="96" y2="24"/><line class="grid-line" x1="0" y1="0" x2="96" y2="0"/><line class="grid-line" x1="0" y1="24" x2="96" y2="24"/><rect x="0" y="0" width="24" height="24" fill="white" stroke="#ccc" stroke-width="0.5"/><g data-pose="idle"><circle cx="12" cy="6" r="3" fill="#0f0" stroke="#0f0" stroke-width="0.75"/><line x1="12" y1="9" x2="12" y2="15" stroke="#0f0" stroke-width="1.5" stroke-linecap="round"/><line x1="7.5" y1="11.25" x2="16.5" y2="11.25" stroke="#0f0" stroke-width="1.5" stroke-linecap="round"/><line x1="9.75" y1="15" x2="9.75" y2="18" stroke="#0f0" stroke-width="1.5" stroke-linecap="round"/><line x1="14.25" y1="15" x2="14.25" y2="18" stroke="#0f0" stroke-width="1.5" stroke-linecap="round"/></g><text x="2" y="22">idle</text><rect x="24" y="0" width="24" height="24" fill="white" stroke="#ccc" stroke-width="0.5"/><g data-pose="walk"><circle cx="36" cy="6" r="3" fill="#0f0" stroke="#0f0" stroke-width="0.75"/><line x1="36" y1="9" x2="36" y2="15" stroke="#0f0" stroke-width="1.5" stroke-linecap="round"/><line x1="31.5" y1="8.25" x2="36" y2="11.25" stroke="#0f0" stroke-width="1.5" stroke-linecap="round"/><line x1="40.5" y1="14.25" x2="36" y2="11.25" stroke="#0f0" stroke-width="1.5" stroke-linecap="round"/><line x1="33.75" y1="15" x2="33.75" y2="18" stroke="#0f0" stroke-width="1.5" stroke-linecap="round"/><line x1="38.25" y1="15" x2="38.25" y2="18" stroke="#0f0" stroke-width="1.5" stroke-linecap="round"/></g><text x="26" y="22">walk</text><rect x="48" y="0" width="24" height="24" fill="white" stroke="#ccc" stroke-width="0.5"/><g data-pose="jump"><circle cx="60" cy="6" r="3" fill="#0f0" stroke="#0f0" stroke-width="0.75"/><line x1="60" y1="9" x2="60" y2="15" stroke="#0f0" stroke-width="1.5" stroke-linecap="round"/><line x1="55.5" y1="6.75" x2="60" y2="11.25" stroke="#0f0" stroke-width="1.5" stroke-linecap="round"/><line x1="64.5" y1="6.75" x2="60" y2="11.25" stroke="#0f0" stroke-width="1.5" stroke-linecap="round"/><line x1="57.75" y1="15" x2="57.75" y2="18" stroke="#0f0" stroke-width="1.5" stroke-linecap="round"/><line x1="62.25" y1="15" x2="62.25" y2="18" stroke="#0f0" stroke-width="1.5" stroke-linecap="round"/></g><text x="50" y="22">jump</text><rect x="72" y="0" width="24" height="24" fill="white" stroke="#ccc" stroke-width="0.5"/><g data-pose="interact"><circle cx="84" cy="6" r="3" fill="#0f0" stroke="#0f0" stroke-width="0.75"/><line x1="84" y1="9" x2="84" y2="15" stroke="#0f0" stroke-width="1.5" stroke-linecap="round"/><line x1="79.5" y1="8.25" x2="84" y2="11.25" stroke="#0f0" stroke-width="1.5" stroke-linecap="round"/><line x1="88.5" y1="12.75" x2="84" y2="11.25" stroke="#0f0" stroke-width="1.5" stroke-linecap="round"/><line x1="81.75" y1="15" x2="81.75" y2="18" stroke="#0f0" stroke-width="1.5" stroke-linecap="round"/><line x1="86.25" y1="15" x2="86.25" y2="18" stroke="#0f0" stroke-width="1.5" stroke-linecap="round"/></g><text x="74" y="22">interact</text>
</svg>