<?xml version="1.0" encoding="UTF-8"?>
<svg xmlns="http://www.w3.org/2000/svg" width="96" height="96" viewBox="0 0 96 96">
<g><circle cx="12.0" cy="5.3" r="4.3" fill="#101018"/><line x1="12.0" y1="8.3" x2="12.0" y2="15.0" stroke="#101018" stroke-width="3.60" stroke-linecap="round"/><line x1="12.0" y1="9.8" x2="7.5" y2="11.3" stroke="#101018" stroke-width="3.60" stroke-linecap="round"/><line x1="12.0" y1="9.8" x2="16.5" y2="11.3" stroke="#101018" stroke-width="3.60" stroke-linecap="round"/><line x1="12.0" y1="15.0" x2="9.6" y2="21.0" stroke="#101018" stroke-width="3.60" stroke-linecap="round"/><line x1="12.0" y1="15.0" x2="14.4" y2="21.0" stroke="#101018" stroke-width="3.60" stroke-linecap="round"/><circle cx="12.0" cy="5.3" r="3.4" fill="#cfd2da"/><line x1="12.0" y1="8.3" x2="12.0" y2="15.0" stroke="#cfd2da" stroke-width="1.95" stroke-linecap="round"/><line x1="12.0" y1="9.8" x2="7.5" y2="11.3" stroke="#cfd2da" stroke-width="1.95" stroke-linecap="round"/><line x1="12.0" y1="9.8" x2="16.5" y2="11.3" stroke="#cfd2da" stroke-width="1.95" stroke-linecap="round"/><line x1="12.0" y1="15.0" x2="9.6" y2="21.0" stroke="#cfd2da" stroke-width="1.95" stroke-linecap="round"/><line x1="12.0" y1="15.0" x2="14.4" y2="21.0" stroke="#cfd2da" stroke-width="1.95" stroke-linecap="round"/></g><g><circle cx="36.0" cy="5.9" r="4.3" fill="#101018"/><line x1="36.0" y1="8.8" x2="36.0" y2="15.6" stroke="#101018" stroke-width="3.60" stroke-linecap="round"/><line x1="36.0" y1="10.3" x2="31.5" y2="12.3" stroke="#101018" stroke-width="3.60" stroke-linecap="round"/><line x1="36.0" y1="10.3" x2="40.5" y2="11.4" stroke="#101018" stroke-width="3.60" stroke-linecap="round"/><line x1="36.0" y1="15.6" x2="33.6" y2="21.6" stroke="#101018" stroke-width="3.60" stroke-linecap="round"/><line x1="36.0" y1="15.6" x2="38.4" y2="21.6" stroke="#101018" stroke-width="3.60" stroke-linecap="round"/><circle cx="36.0" cy="5.9" r="3.4" fill="#cfd2da"/><line x1="36.0" y1="8.8" x2="36.0" y2="15.6" stroke="#cfd2da" stroke-width="1.95" stroke-linecap="round"/><line x1="36.0" y1="10.3" x2="31.5" y2="12.3" stroke="#cfd2da" stroke-width="1.95" stroke-linecap="round"/><line x1="36.0" y1="10.3" x2="40.5" y2="11.4" stroke="#cfd2da" stroke-width="1.95" stroke-linecap="round"/><line x1="36.0" y1="15.6" x2="33.6" y2="21.6" stroke="#cfd2da" stroke-width="1.95" stroke-linecap="round"/><line x1="36.0" y1="15.6" x2="38.4" y2="21.6" stroke="#cfd2da" stroke-width="1.95" stroke-linecap="round"/></g><g><circle cx="60.0" cy="5.3" r="4.3" fill="#101018"/><line x1="60.0" y1="8.3" x2="60.0" y2="15.0" stroke="#101018" stroke-width="3.60" stroke-linecap="round"/><line x1="60.0" y1="9.8" x2="55.5" y2="11.3" stroke="#101018" stroke-width="3.60" stroke-linecap="round"/><line x1="60.0" y1="9.8" x2="64.5" y2="11.3" stroke="#101018" stroke-width="3.60" stroke-linecap="round"/><line x1="60.0" y1="15.0" x2="57.6" y2="21.0" stroke="#101018" stroke-width="3.60" stroke-linecap="round"/><line x1="60.0" y1="15.0" x2="62.4" y2="21.0" stroke="#101018" stroke-width="3.60" stroke-linecap="round"/><circle cx="60.0" cy="5.3" r="3.4" fill="#cfd2da"/><line x1="60.0" y1="8.3" x2="60.0" y2="15.0" stroke="#cfd2da" stroke-width="1.95" stroke-linecap="round"/><line x1="60.0" y1="9.8" x2="55.5" y2="11.3" stroke="#cfd2da" stroke-width="1.95" stroke-linecap="round"/><line x1="60.0" y1="9.8" x2="64.5" y2="11.3" stroke="#cfd2da" stroke-width="1.95" stroke-linecap="round"/><line x1="60.0" y1="15.0" x2="57.6" y2="21.0" stroke="#cfd2da" stroke-width="1.95" stroke-linecap="round"/><line x1="60.0" y1="15.0" x2="62.4" y2="21.0" stroke="#cfd2da" stroke-width="1.95" stroke-linecap="round"/></g><g><circle cx="84.0" cy="5.9" r="4.3" fill="#101018"/><line x1="84.0" y1="8.8" x2="84.0" y2="15.6" stroke="#101018" stroke-width="3.60" stroke-linecap="round"/><line x1="84.0" y1="10.3" x2="79.5" y2="11.4" stroke="#101018" stroke-width="3.60" stroke-linecap="round"/><line x1="84.0" y1="10.3" x2="88.5" y2="12.3" stroke="#101018" stroke-width="3.60" stroke-linecap="round"/><line x1="84.0" y1="15.6" x2="81.6" y2="21.6" stroke="#101018" stroke-width="3.60" stroke-linecap="round"/><line x1="84.0" y1="15.6" x2="86.4" y2="21.6" stroke="#101018" stroke-width="3.60" stroke-linecap="round"/><circle cx="84.0" cy="5.9" r="3.4" fill="#cfd2da"/><line x1="84.0" y1="8.8" x2="84.0" y2="15.6" stroke="#cfd2da" stroke-width="1.95" stroke-linecap="round"/><line x1="84.0" y1="10.3" x2="79.5" y2="11.4" stroke="#cfd2da" stroke-width="1.95" stroke-linecap="round"/><line x1="84.0" y1="10.3" x2="88.5" y2="12.3" stroke="#cfd2da" stroke-width="1.95" stroke-linecap="round"/><line x1="84.0" y1="15.6" x2="81.6" y2="21.6" stroke="#cfd2da" stroke-width="1.95" stroke-linecap="round"/><line x1="84.0" y1="15.6" x2="86.4" y2="21.6" stroke="#cfd2da" stroke-width="1.95" stroke-linecap="round"/></g><g><circle cx="12.0" cy="29.3" r="4.3" fill="#101018"/><line x1="12.0" y1="32.3" x2="12.0" y2="39.0" stroke="#101018" stroke-width="3.60" stroke-linecap="round"/><line x1="12.0" y1="33.8" x2="8.3" y2="34.5" stroke="#101018" stroke-width="3.60" stroke-linecap="round"/><line x1="12.0" y1="33.8" x2="15.8" y2="34.5" stroke="#101018" stroke-width="3.60" stroke-linecap="round"/><line x1="12.0" y1="39.0" x2="9.9" y2="45.0" stroke="#101018" stroke-width="3.60" stroke-linecap="round"/><line x1="12.0" y1="39.0" x2="14.1" y2="45.0" stroke="#101018" stroke-width="3.60" stroke-linecap="round"/><circle cx="12.0" cy="29.3" r="3.4" fill="#cfd2da"/><line x1="12.0" y1="32.3" x2="12.0" y2="39.0" stroke="#cfd2da" stroke-width="1.95" stroke-linecap="round"/><line x1="12.0" y1="33.8" x2="8.3" y2="34.5" stroke="#cfd2da" stroke-width="1.95" stroke-linecap="round"/><line x1="12.0" y1="33.8" x2="15.8" y2="34.5" stroke="#cfd2da" stroke-width="1.95" stroke-linecap="round"/><line x1="12.0" y1="39.0" x2="9.9" y2="45.0" stroke="#cfd2da" stroke-width="1.95" stroke-linecap="round"/><line x1="12.0" y1="39.0" x2="14.1" y2="45.0" stroke="#cfd2da" stroke-width="1.95" stroke-linecap="round"/></g><g><circle cx="36.0" cy="29.3" r="4.3" fill="#101018"/><line x1="36.0" y1="32.3" x2="36.0" y2="39.0" stroke="#101018" stroke-width="3.60" stroke-linecap="round"/><line x1="36.0" y1="33.8" x2="32.3" y2="36.9" stroke="#101018" stroke-width="3.60" stroke-linecap="round"/><line x1="36.0" y1="33.8" x2="39.8" y2="32.1" stroke="#101018" stroke-width="3.60" stroke-linecap="round"/><line x1="36.0" y1="39.0" x2="31.8" y2="45.0" stroke="#101018" stroke-width="3.60" stroke-linecap="round"/><line x1="36.0" y1="39.0" x2="40.2" y2="45.0" stroke="#101018" stroke-width="3.60" stroke-linecap="round"/><circle cx="36.0" cy="29.3" r="3.4" fill="#cfd2da"/><line x1="36.0" y1="32.3" x2="36.0" y2="39.0" stroke="#cfd2da" stroke-width="1.95" stroke-linecap="round"/><line x1="36.0" y1="33.8" x2="32.3" y2="36.9" stroke="#cfd2da" stroke-width="1.95" stroke-linecap="round"/><line x1="36.0" y1="33.8" x2="39.8" y2="32.1" stroke="#cfd2da" stroke-width="1.95" stroke-linecap="round"/><line x1="36.0" y1="39.0" x2="31.8" y2="45.0" stroke="#cfd2da" stroke-width="1.95" stroke-linecap="round"/><line x1="36.0" y1="39.0" x2="40.2" y2="45.0" stroke="#cfd2da" stroke-width="1.95" stroke-linecap="round"/></g><g><circle cx="60.0" cy="29.3" r="4.3" fill="#101018"/><line x1="60.0" y1="32.3" x2="60.0" y2="39.0" stroke="#101018" stroke-width="3.60" stroke-linecap="round"/><line x1="60.0" y1="33.8" x2="56.3" y2="34.5" stroke="#101018" stroke-width="3.60" stroke-linecap="round"/><line x1="60.0" y1="33.8" x2="63.8" y2="34.5" stroke="#101018" stroke-width="3.60" stroke-linecap="round"/><line x1="60.0" y1="39.0" x2="57.9" y2="45.0" stroke="#101018" stroke-width="3.60" stroke-linecap="round"/><line x1="60.0" y1="39.0" x2="62.1" y2="45.0" stroke="#101018" stroke-width="3.60" stroke-linecap="round"/><circle cx="60.0" cy="29.3" r="3.4" fill="#cfd2da"/><line x1="60.0" y1="32.3" x2="60.0" y2="39.0" stroke="#cfd2da" stroke-width="1.95" stroke-linecap="round"/><line x1="60.0" y1="33.8" x2="56.3" y2="34.5" stroke="#cfd2da" stroke-width="1.95" stroke-linecap="round"/><line x1="60.0" y1="33.8" x2="63.8" y2="34.5" stroke="#cfd2da" stroke-width="1.95" stroke-linecap="round"/><line x1="60.0" y1="39.0" x2="57.9" y2="45.0" stroke="#cfd2da" stroke-width="1.95" stroke-linecap="round"/><line x1="60.0" y1="39.0" x2="62.1" y2="45.0" stroke="#cfd2da" stroke-width="1.95" stroke-linecap="round"/></g><g><circle cx="84.0" cy="29.3" r="4.3" fill="#101018"/><line x1="84.0" y1="32.3" x2="84.0" y2="39.0" stroke="#101018" stroke-width="3.60" stroke-linecap="round"/><line x1="84.0" y1="33.8" x2="80.3" y2="32.1" stroke="#101018" stroke-width="3.60" stroke-linecap="round"/><line x1="84.0" y1="33.8" x2="87.8" y2="36.9" stroke="#101018" stroke-width="3.60" stroke-linecap="round"/><line x1="84.0" y1="39.0" x2="84.0" y2="45.0" stroke="#101018" stroke-width="3.60" stroke-linecap="round"/><line x1="84.0" y1="39.0" x2="84.0" y2="45.0" stroke="#101018" stroke-width="3.60" stroke-linecap="round"/><circle cx="84.0" cy="29.3" r="3.4" fill="#cfd2da"/><line x1="84.0" y1="32.3" x2="84.0" y2="39.0" stroke="#cfd2da" stroke-width="1.95" stroke-linecap="round"/><line x1="84.0" y1="33.8" x2="80.3" y2="32.1" stroke="#cfd2da" stroke-width="1.95" stroke-linecap="round"/><line x1="84.0" y1="33.8" x2="87.8" y2="36.9" stroke="#cfd2da" stroke-width="1.95" stroke-linecap="round"/><line x1="84.0" y1="39.0" x2="84.0" y2="45.0" stroke="#cfd2da" stroke-width="1.95" stroke-linecap="round"/><line x1="84.0" y1="39.0" x2="84.0" y2="45.0" stroke="#cfd2da" stroke-width="1.95" stroke-linecap="round"/></g><g><circle cx="12.0" cy="53.3" r="4.3" fill="#101018"/><line x1="12.0" y1="56.3" x2="12.0" y2="63.0" stroke="#101018" stroke-width="3.60" stroke-linecap="round"/><line x1="12.0" y1="57.8" x2="7.5" y2="53.0" stroke="#101018" stroke-width="3.60" stroke-linecap="round"/><line x1="12.0" y1="57.8" x2="16.5" y2="53.0" stroke="#101018" stroke-width="3.60" stroke-linecap="round"/><line x1="12.0" y1="63.0" x2="9.0" y2="68.1" stroke="#101018" stroke-width="3.60" stroke-linecap="round"/><line x1="12.0" y1="63.0" x2="15.0" y2="68.1" stroke="#101018" stroke-width="3.60" stroke-linecap="round"/><circle cx="12.0" cy="53.3" r="3.4" fill="#cfd2da"/><line x1="12.0" y1="56.3" x2="12.0" y2="63.0" stroke="#cfd2da" stroke-width="1.95" stroke-linecap="round"/><line x1="12.0" y1="57.8" x2="7.5" y2="53.0" stroke="#cfd2da" stroke-width="1.95" stroke-linecap="round"/><line x1="12.0" y1="57.8" x2="16.5" y2="53.0" stroke="#cfd2da" stroke-width="1.95" stroke-linecap="round"/><line x1="12.0" y1="63.0" x2="9.0" y2="68.1" stroke="#cfd2da" stroke-width="1.95" stroke-linecap="round"/><line x1="12.0" y1="63.0" x2="15.0" y2="68.1" stroke="#cfd2da" stroke-width="1.95" stroke-linecap="round"/></g><g><circle cx="36.0" cy="52.0" r="4.3" fill="#101018"/><line x1="36.0" y1="55.0" x2="36.0" y2="61.8" stroke="#101018" stroke-width="3.60" stroke-linecap="round"/><line x1="36.0" y1="56.5" x2="31.5" y2="51.8" stroke="#101018" stroke-width="3.60" stroke-linecap="round"/><line x1="36.0" y1="56.5" x2="40.5" y2="51.8" stroke="#101018" stroke-width="3.60" stroke-linecap="round"/><line x1="36.0" y1="61.8" x2="32.1" y2="66.9" stroke="#101018" stroke-width="3.60" stroke-linecap="round"/><line x1="36.0" y1="61.8" x2="39.9" y2="66.9" stroke="#101018" stroke-width="3.60" stroke-linecap="round"/><circle cx="36.0" cy="52.0" r="3.4" fill="#cfd2da"/><line x1="36.0" y1="55.0" x2="36.0" y2="61.8" stroke="#cfd2da" stroke-width="1.95" stroke-linecap="round"/><line x1="36.0" y1="56.5" x2="31.5" y2="51.8" stroke="#cfd2da" stroke-width="1.95" stroke-linecap="round"/><line x1="36.0" y1="56.5" x2="40.5" y2="51.8" stroke="#cfd2da" stroke-width="1.95" stroke-linecap="round"/><line x1="36.0" y1="61.8" x2="32.1" y2="66.9" stroke="#cfd2da" stroke-width="1.95" stroke-linecap="round"/><line x1="36.0" y1="61.8" x2="39.9" y2="66.9" stroke="#cfd2da" stroke-width="1.95" stroke-linecap="round"/></g><g><circle cx="60.0" cy="53.3" r="4.3" fill="#101018"/><line x1="60.0" y1="56.3" x2="60.0" y2="63.0" stroke="#101018" stroke-width="3.60" stroke-linecap="round"/><line x1="60.0" y1="57.8" x2="55.5" y2="53.0" stroke="#101018" stroke-width="3.60" stroke-linecap="round"/><line x1="60.0" y1="57.8" x2="64.5" y2="53.0" stroke="#101018" stroke-width="3.60" stroke-linecap="round"/><line x1="60.0" y1="63.0" x2="57.0" y2="68.1" stroke="#101018" stroke-width="3.60" stroke-linecap="round"/><line x1="60.0" y1="63.0" x2="63.0" y2="68.1" stroke="#101018" stroke-width="3.60" stroke-linecap="round"/><circle cx="60.0" cy="53.3" r="3.4" fill="#cfd2da"/><line x1="60.0" y1="56.3" x2="60.0" y2="63.0" stroke="#cfd2da" stroke-width="1.95" stroke-linecap="round"/><line x1="60.0" y1="57.8" x2="55.5" y2="53.0" stroke="#cfd2da" stroke-width="1.95" stroke-linecap="round"/><line x1="60.0" y1="57.8" x2="64.5" y2="53.0" stroke="#cfd2da" stroke-width="1.95" stroke-linecap="round"/><line x1="60.0" y1="63.0" x2="57.0" y2="68.1" stroke="#cfd2da" stroke-width="1.95" stroke-linecap="round"/><line x1="60.0" y1="63.0" x2="63.0" y2="68.1" stroke="#cfd2da" stroke-width="1.95" stroke-linecap="round"/></g><g><circle cx="84.0" cy="52.0" r="4.3" fill="#101018"/><line x1="84.0" y1="55.0" x2="84.0" y2="61.8" stroke="#101018" stroke-width="3.60" stroke-linecap="round"/><line x1="84.0" y1="56.5" x2="79.5" y2="51.8" stroke="#101018" stroke-width="3.60" stroke-linecap="round"/><line x1="84.0" y1="56.5" x2="88.5" y2="51.8" stroke="#101018" stroke-width="3.60" stroke-linecap="round"/><line x1="84.0" y1="61.8" x2="80.1" y2="66.9" stroke="#101018" stroke-width="3.60" stroke-linecap="round"/><line x1="84.0" y1="61.8" x2="87.9" y2="66.9" stroke="#101018" stroke-width="3.60" stroke-linecap="round"/><circle cx="84.0" cy="52.0" r="3.4" fill="#cfd2da"/><line x1="84.0" y1="55.0" x2="84.0" y2="61.8" stroke="#cfd2da" stroke-width="1.95" stroke-linecap="round"/><line x1="84.0" y1="56.5" x2="79.5" y2="51.8" stroke="#cfd2da" stroke-width="1.95" stroke-linecap="round"/><line x1="84.0" y1="56.5" x2="88.5" y2="51.8" stroke="#cfd2da" stroke-width="1.95" stroke-linecap="round"/><line x1="84.0" y1="61.8" x2="80.1" y2="66.9" stroke="#cfd2da" stroke-width="1.95" stroke-linecap="round"/><line x1="84.0" y1="61.8" x2="87.9" y2="66.9" stroke="#cfd2da" stroke-width="1.95" stroke-linecap="round"/></g><g><circle cx="12.0" cy="77.3" r="4.3" fill="#101018"/><line x1="12.0" y1="80.3" x2="12.0" y2="87.0" stroke="#101018" stroke-width="3.60" stroke-linecap="round"/><line x1="12.0" y1="81.8" x2="8.3" y2="83.3" stroke="#101018" stroke-width="3.60" stroke-linecap="round"/><line x1="12.0" y1="81.8" x2="16.5" y2="76.5" stroke="#101018" stroke-width="3.60" stroke-linecap="round"/><line x1="12.0" y1="87.0" x2="9.6" y2="93.0" stroke="#101018" stroke-width="3.60" stroke-linecap="round"/><line x1="12.0" y1="87.0" x2="14.4" y2="93.0" stroke="#101018" stroke-width="3.60" stroke-linecap="round"/><circle cx="12.0" cy="77.3" r="3.4" fill="#cfd2da"/><line x1="12.0" y1="80.3" x2="12.0" y2="87.0" stroke="#cfd2da" stroke-width="1.95" stroke-linecap="round"/><line x1="12.0" y1="81.8" x2="8.3" y2="83.3" stroke="#cfd2da" stroke-width="1.95" stroke-linecap="round"/><line x1="12.0" y1="81.8" x2="16.5" y2="76.5" stroke="#cfd2da" stroke-width="1.95" stroke-linecap="round"/><line x1="12.0" y1="87.0" x2="9.6" y2="93.0" stroke="#cfd2da" stroke-width="1.95" stroke-linecap="round"/><line x1="12.0" y1="87.0" x2="14.4" y2="93.0" stroke="#cfd2da" stroke-width="1.95" stroke-linecap="round"/></g><g><circle cx="36.0" cy="77.3" r="4.3" fill="#101018"/><line x1="36.0" y1="80.3" x2="36.0" y2="87.0" stroke="#101018" stroke-width="3.60" stroke-linecap="round"/><line x1="36.0" y1="81.8" x2="32.3" y2="83.3" stroke="#101018" stroke-width="3.60" stroke-linecap="round"/><line x1="36.0" y1="81.8" x2="41.4" y2="76.5" stroke="#101018" stroke-width="3.60" stroke-linecap="round"/><line x1="36.0" y1="87.0" x2="33.6" y2="93.0" stroke="#101018" stroke-width="3.60" stroke-linecap="round"/><line x1="36.0" y1="87.0" x2="38.4" y2="93.0" stroke="#101018" stroke-width="3.60" stroke-linecap="round"/><circle cx="36.0" cy="77.3" r="3.4" fill="#cfd2da"/><line x1="36.0" y1="80.3" x2="36.0" y2="87.0" stroke="#cfd2da" stroke-width="1.95" stroke-linecap="round"/><line x1="36.0" y1="81.8" x2="32.3" y2="83.3" stroke="#cfd2da" stroke-width="1.95" stroke-linecap="round"/><line x1="36.0" y1="81.8" x2="41.4" y2="76.5" stroke="#cfd2da" stroke-width="1.95" stroke-linecap="round"/><line x1="36.0" y1="87.0" x2="33.6" y2="93.0" stroke="#cfd2da" stroke-width="1.95" stroke-linecap="round"/><line x1="36.0" y1="87.0" x2="38.4" y2="93.0" stroke="#cfd2da" stroke-width="1.95" stroke-linecap="round"/></g><g><circle cx="60.0" cy="77.3" r="4.3" fill="#101018"/><line x1="60.0" y1="80.3" x2="60.0" y2="87.0" stroke="#101018" stroke-width="3.60" stroke-linecap="round"/><line x1="60.0" y1="81.8" x2="56.3" y2="83.3" stroke="#101018" stroke-width="3.60" stroke-linecap="round"/><line x1="60.0" y1="81.8" x2="64.5" y2="76.5" stroke="#101018" stroke-width="3.60" stroke-linecap="round"/><line x1="60.0" y1="87.0" x2="57.6" y2="93.0" stroke="#101018" stroke-width="3.60" stroke-linecap="round"/><line x1="60.0" y1="87.0" x2="62.4" y2="93.0" stroke="#101018" stroke-width="3.60" stroke-linecap="round"/><circle cx="60.0" cy="77.3" r="3.4" fill="#cfd2da"/><line x1="60.0" y1="80.3" x2="60.0" y2="87.0" stroke="#cfd2da" stroke-width="1.95" stroke-linecap="round"/><line x1="60.0" y1="81.8" x2="56.3" y2="83.3" stroke="#cfd2da" stroke-width="1.95" stroke-linecap="round"/><line x1="60.0" y1="81.8" x2="64.5" y2="76.5" stroke="#cfd2da" stroke-width="1.95" stroke-linecap="round"/><line x1="60.0" y1="87.0" x2="57.6" y2="93.0" stroke="#cfd2da" stroke-width="1.95" stroke-linecap="round"/><line x1="60.0" y1="87.0" x2="62.4" y2="93.0" stroke="#cfd2da" stroke-width="1.95" stroke-linecap="round"/></g><g><circle cx="84.0" cy="77.3" r="4.3" fill="#101018"/><line x1="84.0" y1="80.3" x2="84.0" y2="87.0" stroke="#101018" stroke-width="3.60" stroke-linecap="round"/><line x1="84.0" y1="81.8" x2="80.3" y2="83.3" stroke="#101018" stroke-width="3.60" stroke-linecap="round"/><line x1="84.0" y1="81.8" x2="87.6" y2="76.5" stroke="#101018" stroke-width="3.60" stroke-linecap="round"/><line x1="84.0" y1="87.0" x2="81.6" y2="93.0" stroke="#101018" stroke-width="3.60" stroke-linecap="round"/><line x1="84.0" y1="87.0" x2="86.4" y2="93.0" stroke="#101018" stroke-width="3.60" stroke-linecap="round"/><circle cx="84.0" cy="77.3" r="3.4" fill="#cfd2da"/><line x1="84.0" y1="80.3" x2="84.0" y2="87.0" stroke="#cfd2da" stroke-width="1.95" stroke-linecap="round"/><line x1="84.0" y1="81.8" x2="80.3" y2="83.3" stroke="#cfd2da" stroke-width="1.95" stroke-linecap="round"/><line x1="84.0" y1="81.8" x2="87.6" y2="76.5" stroke="#cfd2da" stroke-width="1.95" stroke-linecap="round"/><line x1="84.0" y1="87.0" x2="81.6" y2="93.0" stroke="#cfd2da" stroke-width="1.95" stroke-linecap="round"/><line x1="84.0" y1="87.0" x2="86.4" y2="93.0" stroke="#cfd2da" stroke-width="1.95" stroke-linecap="round"/></g>
</svg>
