<svg xmlns="http://www.w3.org/2000/svg" width="80" height="36" viewBox="0 0 80 36" shape-rendering="geometricPrecision">
    <g>
      <path d="M 6.8 28.5 Q 10 35.5 13.2 28.5 Z" fill="#ff5ad2"/>
      <path d="M 8.24 28.5 Q 10 33.5 11.76 28.5 Z" fill="#fff0fb"/>
      <path d="M 4 23 L 1.4 32 L 4 27 Z" fill="#ffb000" stroke="#2a0a33" stroke-width="0.8" stroke-linejoin="round"/>
      <path d="M 16 23 L 18.6 32 L 16 27 Z" fill="#ffb000" stroke="#2a0a33" stroke-width="0.8" stroke-linejoin="round"/>
      <path d="M 10 2 Q 16.5 8 16 9 L 16 27 Q 10 30 4 27 L 4 9 Q 3.5 8 10 2 Z" fill="#e23ca8" stroke="#2a0a33" stroke-width="1" stroke-linejoin="round"/>
      <path d="M 10 2 Q 16.5 8 16 9 L 4 9 Q 3.5 8 10 2 Z" fill="#ffcf3a"/>
      <rect x="7.3 " y="10" width="2.1" height="16" rx="0.8" fill="#ffd6f3" opacity="0.5"/>
      <circle cx="10" cy="16.2" r="3.1" fill="#2a0a33"/>
      <circle cx="10" cy="16.2" r="2.4" fill="#9be8ff"/>
      <circle cx="9.28" cy="15.48" r="0.84" fill="#ffffff" opacity="0.85"/>
    </g>
    <g>
      <path d="M 25.8 28.5 Q 30 38.5 34.2 28.5 Z" fill="#ff5ad2"/>
      <path d="M 27.69 28.5 Q 30 36.5 32.31 28.5 Z" fill="#fff0fb"/>
      <path d="M 24 23 L 21.4 32 L 24 27 Z" fill="#ffb000" stroke="#2a0a33" stroke-width="0.8" stroke-linejoin="round"/>
      <path d="M 36 23 L 38.6 32 L 36 27 Z" fill="#ffb000" stroke="#2a0a33" stroke-width="0.8" stroke-linejoin="round"/>
      <path d="M 30 2 Q 36.5 8 36 9 L 36 27 Q 30 30 24 27 L 24 9 Q 23.5 8 30 2 Z" fill="#e23ca8" stroke="#2a0a33" stroke-width="1" stroke-linejoin="round"/>
      <path d="M 30 2 Q 36.5 8 36 9 L 24 9 Q 23.5 8 30 2 Z" fill="#ffcf3a"/>
      <rect x="27.3 " y="10" width="2.1" height="16" rx="0.8" fill="#ffd6f3" opacity="0.5"/>
      <circle cx="30" cy="16.2" r="3.1" fill="#2a0a33"/>
      <circle cx="30" cy="16.2" r="2.4" fill="#9be8ff"/>
      <circle cx="29.28" cy="15.48" r="0.84" fill="#ffffff" opacity="0.85"/>
    </g>
    <g>
      <path d="M 47.4 28.5 Q 50 34.5 52.6 28.5 Z" fill="#ff5ad2"/>
      <path d="M 48.57 28.5 Q 50 32.5 51.43 28.5 Z" fill="#fff0fb"/>
      <path d="M 44 23 L 41.4 32 L 44 27 Z" fill="#ffb000" stroke="#2a0a33" stroke-width="0.8" stroke-linejoin="round"/>
      <path d="M 56 23 L 58.6 32 L 56 27 Z" fill="#ffb000" stroke="#2a0a33" stroke-width="0.8" stroke-linejoin="round"/>
      <path d="M 50 2 Q 56.5 8 56 9 L 56 27 Q 50 30 44 27 L 44 9 Q 43.5 8 50 2 Z" fill="#e23ca8" stroke="#2a0a33" stroke-width="1" stroke-linejoin="round"/>
      <path d="M 50 2 Q 56.5 8 56 9 L 44 9 Q 43.5 8 50 2 Z" fill="#ffcf3a"/>
      <rect x="47.3 " y="10" width="2.1" height="16" rx="0.8" fill="#ffd6f3" opacity="0.5"/>
      <circle cx="50" cy="16.2" r="3.1" fill="#2a0a33"/>
      <circle cx="50" cy="16.2" r="2.4" fill="#9be8ff"/>
      <circle cx="49.28" cy="15.48" r="0.84" fill="#ffffff" opacity="0.85"/>
    </g>
    <g>
      <path d="M 66.2 28.5 Q 70 37.5 73.8 28.5 Z" fill="#ff5ad2"/>
      <path d="M 67.91 28.5 Q 70 35.5 72.09 28.5 Z" fill="#fff0fb"/>
      <path d="M 64 23 L 61.4 32 L 64 27 Z" fill="#ffb000" stroke="#2a0a33" stroke-width="0.8" stroke-linejoin="round"/>
      <path d="M 76 23 L 78.6 32 L 76 27 Z" fill="#ffb000" stroke="#2a0a33" stroke-width="0.8" stroke-linejoin="round"/>
      <path d="M 70 2 Q 76.5 8 76 9 L 76 27 Q 70 30 64 27 L 64 9 Q 63.5 8 70 2 Z" fill="#e23ca8" stroke="#2a0a33" stroke-width="1" stroke-linejoin="round"/>
      <path d="M 70 2 Q 76.5 8 76 9 L 64 9 Q 63.5 8 70 2 Z" fill="#ffcf3a"/>
      <rect x="67.3 " y="10" width="2.1" height="16" rx="0.8" fill="#ffd6f3" opacity="0.5"/>
      <circle cx="70" cy="16.2" r="3.1" fill="#2a0a33"/>
      <circle cx="70" cy="16.2" r="2.4" fill="#9be8ff"/>
      <circle cx="69.28" cy="15.48" r="0.84" fill="#ffffff" opacity="0.85"/>
    </g>
</svg>
