<svg xmlns="http://www.w3.org/2000/svg" width="64" height="22" viewBox="0 0 64 22" shape-rendering="geometricPrecision">
    <g>
      <path d="M 2.6 1 C 2.6 10 5.84 18 8 19 C 10.16 18 13.4 10 13.4 1 Z" fill="#ff3b1f"/>
      <path d="M 4.11 1 C 4.11 10 6.44 14.76 8 15.76 C 9.56 14.76 11.89 10 11.89 1 Z" fill="#ff8a1e"/>
      <path d="M 5.52 1 C 5.52 10 7.01 11.16 8 12.16 C 8.99 11.16 10.48 10 10.48 1 Z" fill="#ffcf3a"/>
      <path d="M 6.81 1 C 6.81 10 7.52 7.56 8 8.56 C 8.48 7.56 9.19 10 9.19 1 Z" fill="#fffbe6"/>
    </g>
    <g>
      <path d="M 17.8 1 C 17.8 11.5 21.52 21 24 22 C 26.48 21 30.2 11.5 30.2 1 Z" fill="#ff3b1f"/>
      <path d="M 19.54 1 C 19.54 11.5 22.21 17.22 24 18.22 C 25.79 17.22 28.46 11.5 28.46 1 Z" fill="#ff8a1e"/>
      <path d="M 21.15 1 C 21.15 11.5 22.86 13.02 24 14.02 C 25.14 13.02 26.85 11.5 26.85 1 Z" fill="#ffcf3a"/>
      <path d="M 22.64 1 C 22.64 11.5 23.45 8.82 24 9.82 C 24.55 8.82 25.36 11.5 25.36 1 Z" fill="#fffbe6"/>
    </g>
    <g>
      <path d="M 35.4 1 C 35.4 9 38.16 16 40 17 C 41.84 16 44.6 9 44.6 1 Z" fill="#ff3b1f"/>
      <path d="M 36.69 1 C 36.69 9 38.68 13.12 40 14.12 C 41.32 13.12 43.31 9 43.31 1 Z" fill="#ff8a1e"/>
      <path d="M 37.88 1 C 37.88 9 39.15 9.92 40 10.92 C 40.85 9.92 42.12 9 42.12 1 Z" fill="#ffcf3a"/>
      <path d="M 38.99 1 C 38.99 9 39.6 6.72 40 7.72 C 40.4 6.72 41.01 9 41.01 1 Z" fill="#fffbe6"/>
    </g>
    <g>
      <path d="M 50.2 1 C 50.2 11 53.68 20 56 21 C 58.32 20 61.8 11 61.8 1 Z" fill="#ff3b1f"/>
      <path d="M 51.82 1 C 51.82 11 54.33 16.4 56 17.4 C 57.67 16.4 60.18 11 60.18 1 Z" fill="#ff8a1e"/>
      <path d="M 53.33 1 C 53.33 11 54.93 12.4 56 13.4 C 57.07 12.4 58.67 11 58.67 1 Z" fill="#ffcf3a"/>
      <path d="M 54.72 1 C 54.72 11 55.49 8.4 56 9.4 C 56.51 8.4 57.28 11 57.28 1 Z" fill="#fffbe6"/>
    </g>
</svg>
