<?xml version="1.0" encoding="UTF-8"?>
<svg xmlns="http://www.w3.org/2000/svg" width="64" height="16" viewBox="0 0 64 16">
  <defs>
    <style>
      text { font-family: monospace; font-size: 10px; fill: #666; }
      .grid-line { stroke: #ddd; stroke-width: 0.5; }
    </style>
  </defs>
  <!-- Background grid -->
  <rect width="64" height="16" fill="#f5f5f5"/><line class="grid-line" x1="0" y1="0" x2="0" y2="16"/><line class="grid-line" x1="16" y1="0" x2="16" y2="16"/><line class="grid-line" x1="32" y1="0" x2="32" y2="16"/><line class="grid-line" x1="48" y1="0" x2="48" y2="16"/><line class="grid-line" x1="64" y1="0" x2="64" y2="16"/><line class="grid-line" x1="0" y1="0" x2="64" y2="0"/><line class="grid-line" x1="0" y1="16" x2="64" y2="16"/><rect x="0" y="0" width="16" height="16" fill="white" stroke="#ccc" stroke-width="0.5"/><g data-pose="idle"><circle cx="8" cy="4" r="2" fill="#888" stroke="#888" stroke-width="0.5"/><line x1="8" y1="6" x2="8" y2="10" stroke="#888" stroke-width="1" stroke-linecap="round"/><line x1="5" y1="7.5" x2="11" y2="7.5" stroke="#888" stroke-width="1" stroke-linecap="round"/><line x1="6.5" y1="10" x2="6.5" y2="12" stroke="#888" stroke-width="1" stroke-linecap="round"/><line x1="9.5" y1="10" x2="9.5" y2="12" stroke="#888" stroke-width="1" stroke-linecap="round"/></g><text x="2" y="14">idle</text><rect x="16" y="0" width="16" height="16" fill="white" stroke="#ccc" stroke-width="0.5"/><g data-pose="walk"><circle cx="24" cy="4" r="2" fill="#888" stroke="#888" stroke-width="0.5"/><line x1="24" y1="6" x2="24" y2="10" stroke="#888" stroke-width="1" stroke-linecap="round"/><line x1="21" y1="5.5" x2="24" y2="7.5" stroke="#888" stroke-width="1" stroke-linecap="round"/><line x1="27" y1="9.5" x2="24" y2="7.5" stroke="#888" stroke-width="1" stroke-linecap="round"/><line x1="22.5" y1="10" x2="22.5" y2="12" stroke="#888" stroke-width="1" stroke-linecap="round"/><line x1="25.5" y1="10" x2="25.5" y2="12" stroke="#888" stroke-width="1" stroke-linecap="round"/></g><text x="18" y="14">walk</text><rect x="32" y="0" width="16" height="16" fill="white" stroke="#ccc" stroke-width="0.5"/><g data-pose="jump"><circle cx="40" cy="4" r="2" fill="#888" stroke="#888" stroke-width="0.5"/><line x1="40" y1="6" x2="40" y2="10" stroke="#888" stroke-width="1" stroke-linecap="round"/><line x1="37" y1="4.5" x2="40" y2="7.5" stroke="#888" stroke-width="1" stroke-linecap="round"/><line x1="43" y1="4.5" x2="40" y2="7.5" stroke="#888" stroke-width="1" stroke-linecap="round"/><line x1="38.5" y1="10" x2="38.5" y2="12" stroke="#888" stroke-width="1" stroke-linecap="round"/><line x1="41.5" y1="10" x2="41.5" y2="12" stroke="#888" stroke-width="1" stroke-linecap="round"/></g><text x="34" y="14">jump</text><rect x="48" y="0" width="16" height="16" fill="white" stroke="#ccc" stroke-width="0.5"/><g data-pose="interact"><circle cx="56" cy="4" r="2" fill="#888" stroke="#888" stroke-width="0.5"/><line x1="56" y1="6" x2="56" y2="10" stroke="#888" stroke-width="1" stroke-linecap="round"/><line x1="53" y1="5.5" x2="56" y2="7.5" stroke="#888" stroke-width="1" stroke-linecap="round"/><line x1="59" y1="8.5" x2="56" y2="7.5" stroke="#888" stroke-width="1" stroke-linecap="round"/><line x1="54.5" y1="10" x2="54.5" y2="12" stroke="#888" stroke-width="1" stroke-linecap="round"/><line x1="57.5" y1="10" x2="57.5" y2="12" stroke="#888" stroke-width="1" stroke-linecap="round"/></g><text x="50" y="14">interact</text>
</svg>