<?xml version="1.0" encoding="UTF-8"?>
<svg xmlns="http://www.w3.org/2000/svg" width="64" height="64" viewBox="0 0 64 64">
<g><circle cx="8.0" cy="3.5" r="2.9" fill="#101018"/><line x1="8.0" y1="5.5" x2="8.0" y2="10.0" stroke="#101018" stroke-width="2.40" stroke-linecap="round"/><line x1="8.0" y1="6.5" x2="5.0" y2="7.5" stroke="#101018" stroke-width="2.40" stroke-linecap="round"/><line x1="8.0" y1="6.5" x2="11.0" y2="7.5" stroke="#101018" stroke-width="2.40" stroke-linecap="round"/><line x1="8.0" y1="10.0" x2="6.4" y2="14.0" stroke="#101018" stroke-width="2.40" stroke-linecap="round"/><line x1="8.0" y1="10.0" x2="9.6" y2="14.0" stroke="#101018" stroke-width="2.40" stroke-linecap="round"/><circle cx="8.0" cy="3.5" r="2.3" fill="#33F0FF"/><line x1="8.0" y1="5.5" x2="8.0" y2="10.0" stroke="#33F0FF" stroke-width="1.30" stroke-linecap="round"/><line x1="8.0" y1="6.5" x2="5.0" y2="7.5" stroke="#33F0FF" stroke-width="1.30" stroke-linecap="round"/><line x1="8.0" y1="6.5" x2="11.0" y2="7.5" stroke="#33F0FF" stroke-width="1.30" stroke-linecap="round"/><line x1="8.0" y1="10.0" x2="6.4" y2="14.0" stroke="#33F0FF" stroke-width="1.30" stroke-linecap="round"/><line x1="8.0" y1="10.0" x2="9.6" y2="14.0" stroke="#33F0FF" stroke-width="1.30" stroke-linecap="round"/></g><g><circle cx="24.0" cy="3.9" r="2.9" fill="#101018"/><line x1="24.0" y1="5.9" x2="24.0" y2="10.4" stroke="#101018" stroke-width="2.40" stroke-linecap="round"/><line x1="24.0" y1="6.9" x2="21.0" y2="8.2" stroke="#101018" stroke-width="2.40" stroke-linecap="round"/><line x1="24.0" y1="6.9" x2="27.0" y2="7.6" stroke="#101018" stroke-width="2.40" stroke-linecap="round"/><line x1="24.0" y1="10.4" x2="22.4" y2="14.4" stroke="#101018" stroke-width="2.40" stroke-linecap="round"/><line x1="24.0" y1="10.4" x2="25.6" y2="14.4" stroke="#101018" stroke-width="2.40" stroke-linecap="round"/><circle cx="24.0" cy="3.9" r="2.3" fill="#33F0FF"/><line x1="24.0" y1="5.9" x2="24.0" y2="10.4" stroke="#33F0FF" stroke-width="1.30" stroke-linecap="round"/><line x1="24.0" y1="6.9" x2="21.0" y2="8.2" stroke="#33F0FF" stroke-width="1.30" stroke-linecap="round"/><line x1="24.0" y1="6.9" x2="27.0" y2="7.6" stroke="#33F0FF" stroke-width="1.30" stroke-linecap="round"/><line x1="24.0" y1="10.4" x2="22.4" y2="14.4" stroke="#33F0FF" stroke-width="1.30" stroke-linecap="round"/><line x1="24.0" y1="10.4" x2="25.6" y2="14.4" stroke="#33F0FF" stroke-width="1.30" stroke-linecap="round"/></g><g><circle cx="40.0" cy="3.5" r="2.9" fill="#101018"/><line x1="40.0" y1="5.5" x2="40.0" y2="10.0" stroke="#101018" stroke-width="2.40" stroke-linecap="round"/><line x1="40.0" y1="6.5" x2="37.0" y2="7.5" stroke="#101018" stroke-width="2.40" stroke-linecap="round"/><line x1="40.0" y1="6.5" x2="43.0" y2="7.5" stroke="#101018" stroke-width="2.40" stroke-linecap="round"/><line x1="40.0" y1="10.0" x2="38.4" y2="14.0" stroke="#101018" stroke-width="2.40" stroke-linecap="round"/><line x1="40.0" y1="10.0" x2="41.6" y2="14.0" stroke="#101018" stroke-width="2.40" stroke-linecap="round"/><circle cx="40.0" cy="3.5" r="2.3" fill="#33F0FF"/><line x1="40.0" y1="5.5" x2="40.0" y2="10.0" stroke="#33F0FF" stroke-width="1.30" stroke-linecap="round"/><line x1="40.0" y1="6.5" x2="37.0" y2="7.5" stroke="#33F0FF" stroke-width="1.30" stroke-linecap="round"/><line x1="40.0" y1="6.5" x2="43.0" y2="7.5" stroke="#33F0FF" stroke-width="1.30" stroke-linecap="round"/><line x1="40.0" y1="10.0" x2="38.4" y2="14.0" stroke="#33F0FF" stroke-width="1.30" stroke-linecap="round"/><line x1="40.0" y1="10.0" x2="41.6" y2="14.0" stroke="#33F0FF" stroke-width="1.30" stroke-linecap="round"/></g><g><circle cx="56.0" cy="3.9" r="2.9" fill="#101018"/><line x1="56.0" y1="5.9" x2="56.0" y2="10.4" stroke="#101018" stroke-width="2.40" stroke-linecap="round"/><line x1="56.0" y1="6.9" x2="53.0" y2="7.6" stroke="#101018" stroke-width="2.40" stroke-linecap="round"/><line x1="56.0" y1="6.9" x2="59.0" y2="8.2" stroke="#101018" stroke-width="2.40" stroke-linecap="round"/><line x1="56.0" y1="10.4" x2="54.4" y2="14.4" stroke="#101018" stroke-width="2.40" stroke-linecap="round"/><line x1="56.0" y1="10.4" x2="57.6" y2="14.4" stroke="#101018" stroke-width="2.40" stroke-linecap="round"/><circle cx="56.0" cy="3.9" r="2.3" fill="#33F0FF"/><line x1="56.0" y1="5.9" x2="56.0" y2="10.4" stroke="#33F0FF" stroke-width="1.30" stroke-linecap="round"/><line x1="56.0" y1="6.9" x2="53.0" y2="7.6" stroke="#33F0FF" stroke-width="1.30" stroke-linecap="round"/><line x1="56.0" y1="6.9" x2="59.0" y2="8.2" stroke="#33F0FF" stroke-width="1.30" stroke-linecap="round"/><line x1="56.0" y1="10.4" x2="54.4" y2="14.4" stroke="#33F0FF" stroke-width="1.30" stroke-linecap="round"/><line x1="56.0" y1="10.4" x2="57.6" y2="14.4" stroke="#33F0FF" stroke-width="1.30" stroke-linecap="round"/></g><g><circle cx="8.0" cy="19.5" r="2.9" fill="#101018"/><line x1="8.0" y1="21.5" x2="8.0" y2="26.0" stroke="#101018" stroke-width="2.40" stroke-linecap="round"/><line x1="8.0" y1="22.5" x2="5.5" y2="23.0" stroke="#101018" stroke-width="2.40" stroke-linecap="round"/><line x1="8.0" y1="22.5" x2="10.5" y2="23.0" stroke="#101018" stroke-width="2.40" stroke-linecap="round"/><line x1="8.0" y1="26.0" x2="6.6" y2="30.0" stroke="#101018" stroke-width="2.40" stroke-linecap="round"/><line x1="8.0" y1="26.0" x2="9.4" y2="30.0" stroke="#101018" stroke-width="2.40" stroke-linecap="round"/><circle cx="8.0" cy="19.5" r="2.3" fill="#33F0FF"/><line x1="8.0" y1="21.5" x2="8.0" y2="26.0" stroke="#33F0FF" stroke-width="1.30" stroke-linecap="round"/><line x1="8.0" y1="22.5" x2="5.5" y2="23.0" stroke="#33F0FF" stroke-width="1.30" stroke-linecap="round"/><line x1="8.0" y1="22.5" x2="10.5" y2="23.0" stroke="#33F0FF" stroke-width="1.30" stroke-linecap="round"/><line x1="8.0" y1="26.0" x2="6.6" y2="30.0" stroke="#33F0FF" stroke-width="1.30" stroke-linecap="round"/><line x1="8.0" y1="26.0" x2="9.4" y2="30.0" stroke="#33F0FF" stroke-width="1.30" stroke-linecap="round"/></g><g><circle cx="24.0" cy="19.5" r="2.9" fill="#101018"/><line x1="24.0" y1="21.5" x2="24.0" y2="26.0" stroke="#101018" stroke-width="2.40" stroke-linecap="round"/><line x1="24.0" y1="22.5" x2="21.5" y2="24.6" stroke="#101018" stroke-width="2.40" stroke-linecap="round"/><line x1="24.0" y1="22.5" x2="26.5" y2="21.4" stroke="#101018" stroke-width="2.40" stroke-linecap="round"/><line x1="24.0" y1="26.0" x2="21.2" y2="30.0" stroke="#101018" stroke-width="2.40" stroke-linecap="round"/><line x1="24.0" y1="26.0" x2="26.8" y2="30.0" stroke="#101018" stroke-width="2.40" stroke-linecap="round"/><circle cx="24.0" cy="19.5" r="2.3" fill="#33F0FF"/><line x1="24.0" y1="21.5" x2="24.0" y2="26.0" stroke="#33F0FF" stroke-width="1.30" stroke-linecap="round"/><line x1="24.0" y1="22.5" x2="21.5" y2="24.6" stroke="#33F0FF" stroke-width="1.30" stroke-linecap="round"/><line x1="24.0" y1="22.5" x2="26.5" y2="21.4" stroke="#33F0FF" stroke-width="1.30" stroke-linecap="round"/><line x1="24.0" y1="26.0" x2="21.2" y2="30.0" stroke="#33F0FF" stroke-width="1.30" stroke-linecap="round"/><line x1="24.0" y1="26.0" x2="26.8" y2="30.0" stroke="#33F0FF" stroke-width="1.30" stroke-linecap="round"/></g><g><circle cx="40.0" cy="19.5" r="2.9" fill="#101018"/><line x1="40.0" y1="21.5" x2="40.0" y2="26.0" stroke="#101018" stroke-width="2.40" stroke-linecap="round"/><line x1="40.0" y1="22.5" x2="37.5" y2="23.0" stroke="#101018" stroke-width="2.40" stroke-linecap="round"/><line x1="40.0" y1="22.5" x2="42.5" y2="23.0" stroke="#101018" stroke-width="2.40" stroke-linecap="round"/><line x1="40.0" y1="26.0" x2="38.6" y2="30.0" stroke="#101018" stroke-width="2.40" stroke-linecap="round"/><line x1="40.0" y1="26.0" x2="41.4" y2="30.0" stroke="#101018" stroke-width="2.40" stroke-linecap="round"/><circle cx="40.0" cy="19.5" r="2.3" fill="#33F0FF"/><line x1="40.0" y1="21.5" x2="40.0" y2="26.0" stroke="#33F0FF" stroke-width="1.30" stroke-linecap="round"/><line x1="40.0" y1="22.5" x2="37.5" y2="23.0" stroke="#33F0FF" stroke-width="1.30" stroke-linecap="round"/><line x1="40.0" y1="22.5" x2="42.5" y2="23.0" stroke="#33F0FF" stroke-width="1.30" stroke-linecap="round"/><line x1="40.0" y1="26.0" x2="38.6" y2="30.0" stroke="#33F0FF" stroke-width="1.30" stroke-linecap="round"/><line x1="40.0" y1="26.0" x2="41.4" y2="30.0" stroke="#33F0FF" stroke-width="1.30" stroke-linecap="round"/></g><g><circle cx="56.0" cy="19.5" r="2.9" fill="#101018"/><line x1="56.0" y1="21.5" x2="56.0" y2="26.0" stroke="#101018" stroke-width="2.40" stroke-linecap="round"/><line x1="56.0" y1="22.5" x2="53.5" y2="21.4" stroke="#101018" stroke-width="2.40" stroke-linecap="round"/><line x1="56.0" y1="22.5" x2="58.5" y2="24.6" stroke="#101018" stroke-width="2.40" stroke-linecap="round"/><line x1="56.0" y1="26.0" x2="56.0" y2="30.0" stroke="#101018" stroke-width="2.40" stroke-linecap="round"/><line x1="56.0" y1="26.0" x2="56.0" y2="30.0" stroke="#101018" stroke-width="2.40" stroke-linecap="round"/><circle cx="56.0" cy="19.5" r="2.3" fill="#33F0FF"/><line x1="56.0" y1="21.5" x2="56.0" y2="26.0" stroke="#33F0FF" stroke-width="1.30" stroke-linecap="round"/><line x1="56.0" y1="22.5" x2="53.5" y2="21.4" stroke="#33F0FF" stroke-width="1.30" stroke-linecap="round"/><line x1="56.0" y1="22.5" x2="58.5" y2="24.6" stroke="#33F0FF" stroke-width="1.30" stroke-linecap="round"/><line x1="56.0" y1="26.0" x2="56.0" y2="30.0" stroke="#33F0FF" stroke-width="1.30" stroke-linecap="round"/><line x1="56.0" y1="26.0" x2="56.0" y2="30.0" stroke="#33F0FF" stroke-width="1.30" stroke-linecap="round"/></g><g><circle cx="8.0" cy="35.5" r="2.9" fill="#101018"/><line x1="8.0" y1="37.5" x2="8.0" y2="42.0" stroke="#101018" stroke-width="2.40" stroke-linecap="round"/><line x1="8.0" y1="38.5" x2="5.0" y2="35.3" stroke="#101018" stroke-width="2.40" stroke-linecap="round"/><line x1="8.0" y1="38.5" x2="11.0" y2="35.3" stroke="#101018" stroke-width="2.40" stroke-linecap="round"/><line x1="8.0" y1="42.0" x2="6.0" y2="45.4" stroke="#101018" stroke-width="2.40" stroke-linecap="round"/><line x1="8.0" y1="42.0" x2="10.0" y2="45.4" stroke="#101018" stroke-width="2.40" stroke-linecap="round"/><circle cx="8.0" cy="35.5" r="2.3" fill="#33F0FF"/><line x1="8.0" y1="37.5" x2="8.0" y2="42.0" stroke="#33F0FF" stroke-width="1.30" stroke-linecap="round"/><line x1="8.0" y1="38.5" x2="5.0" y2="35.3" stroke="#33F0FF" stroke-width="1.30" stroke-linecap="round"/><line x1="8.0" y1="38.5" x2="11.0" y2="35.3" stroke="#33F0FF" stroke-width="1.30" stroke-linecap="round"/><line x1="8.0" y1="42.0" x2="6.0" y2="45.4" stroke="#33F0FF" stroke-width="1.30" stroke-linecap="round"/><line x1="8.0" y1="42.0" x2="10.0" y2="45.4" stroke="#33F0FF" stroke-width="1.30" stroke-linecap="round"/></g><g><circle cx="24.0" cy="34.7" r="2.9" fill="#101018"/><line x1="24.0" y1="36.7" x2="24.0" y2="41.2" stroke="#101018" stroke-width="2.40" stroke-linecap="round"/><line x1="24.0" y1="37.7" x2="21.0" y2="34.5" stroke="#101018" stroke-width="2.40" stroke-linecap="round"/><line x1="24.0" y1="37.7" x2="27.0" y2="34.5" stroke="#101018" stroke-width="2.40" stroke-linecap="round"/><line x1="24.0" y1="41.2" x2="21.4" y2="44.6" stroke="#101018" stroke-width="2.40" stroke-linecap="round"/><line x1="24.0" y1="41.2" x2="26.6" y2="44.6" stroke="#101018" stroke-width="2.40" stroke-linecap="round"/><circle cx="24.0" cy="34.7" r="2.3" fill="#33F0FF"/><line x1="24.0" y1="36.7" x2="24.0" y2="41.2" stroke="#33F0FF" stroke-width="1.30" stroke-linecap="round"/><line x1="24.0" y1="37.7" x2="21.0" y2="34.5" stroke="#33F0FF" stroke-width="1.30" stroke-linecap="round"/><line x1="24.0" y1="37.7" x2="27.0" y2="34.5" stroke="#33F0FF" stroke-width="1.30" stroke-linecap="round"/><line x1="24.0" y1="41.2" x2="21.4" y2="44.6" stroke="#33F0FF" stroke-width="1.30" stroke-linecap="round"/><line x1="24.0" y1="41.2" x2="26.6" y2="44.6" stroke="#33F0FF" stroke-width="1.30" stroke-linecap="round"/></g><g><circle cx="40.0" cy="35.5" r="2.9" fill="#101018"/><line x1="40.0" y1="37.5" x2="40.0" y2="42.0" stroke="#101018" stroke-width="2.40" stroke-linecap="round"/><line x1="40.0" y1="38.5" x2="37.0" y2="35.3" stroke="#101018" stroke-width="2.40" stroke-linecap="round"/><line x1="40.0" y1="38.5" x2="43.0" y2="35.3" stroke="#101018" stroke-width="2.40" stroke-linecap="round"/><line x1="40.0" y1="42.0" x2="38.0" y2="45.4" stroke="#101018" stroke-width="2.40" stroke-linecap="round"/><line x1="40.0" y1="42.0" x2="42.0" y2="45.4" stroke="#101018" stroke-width="2.40" stroke-linecap="round"/><circle cx="40.0" cy="35.5" r="2.3" fill="#33F0FF"/><line x1="40.0" y1="37.5" x2="40.0" y2="42.0" stroke="#33F0FF" stroke-width="1.30" stroke-linecap="round"/><line x1="40.0" y1="38.5" x2="37.0" y2="35.3" stroke="#33F0FF" stroke-width="1.30" stroke-linecap="round"/><line x1="40.0" y1="38.5" x2="43.0" y2="35.3" stroke="#33F0FF" stroke-width="1.30" stroke-linecap="round"/><line x1="40.0" y1="42.0" x2="38.0" y2="45.4" stroke="#33F0FF" stroke-width="1.30" stroke-linecap="round"/><line x1="40.0" y1="42.0" x2="42.0" y2="45.4" stroke="#33F0FF" stroke-width="1.30" stroke-linecap="round"/></g><g><circle cx="56.0" cy="34.7" r="2.9" fill="#101018"/><line x1="56.0" y1="36.7" x2="56.0" y2="41.2" stroke="#101018" stroke-width="2.40" stroke-linecap="round"/><line x1="56.0" y1="37.7" x2="53.0" y2="34.5" stroke="#101018" stroke-width="2.40" stroke-linecap="round"/><line x1="56.0" y1="37.7" x2="59.0" y2="34.5" stroke="#101018" stroke-width="2.40" stroke-linecap="round"/><line x1="56.0" y1="41.2" x2="53.4" y2="44.6" stroke="#101018" stroke-width="2.40" stroke-linecap="round"/><line x1="56.0" y1="41.2" x2="58.6" y2="44.6" stroke="#101018" stroke-width="2.40" stroke-linecap="round"/><circle cx="56.0" cy="34.7" r="2.3" fill="#33F0FF"/><line x1="56.0" y1="36.7" x2="56.0" y2="41.2" stroke="#33F0FF" stroke-width="1.30" stroke-linecap="round"/><line x1="56.0" y1="37.7" x2="53.0" y2="34.5" stroke="#33F0FF" stroke-width="1.30" stroke-linecap="round"/><line x1="56.0" y1="37.7" x2="59.0" y2="34.5" stroke="#33F0FF" stroke-width="1.30" stroke-linecap="round"/><line x1="56.0" y1="41.2" x2="53.4" y2="44.6" stroke="#33F0FF" stroke-width="1.30" stroke-linecap="round"/><line x1="56.0" y1="41.2" x2="58.6" y2="44.6" stroke="#33F0FF" stroke-width="1.30" stroke-linecap="round"/></g><g><circle cx="8.0" cy="51.5" r="2.9" fill="#101018"/><line x1="8.0" y1="53.5" x2="8.0" y2="58.0" stroke="#101018" stroke-width="2.40" stroke-linecap="round"/><line x1="8.0" y1="54.5" x2="5.5" y2="55.5" stroke="#101018" stroke-width="2.40" stroke-linecap="round"/><line x1="8.0" y1="54.5" x2="11.0" y2="51.0" stroke="#101018" stroke-width="2.40" stroke-linecap="round"/><line x1="8.0" y1="58.0" x2="6.4" y2="62.0" stroke="#101018" stroke-width="2.40" stroke-linecap="round"/><line x1="8.0" y1="58.0" x2="9.6" y2="62.0" stroke="#101018" stroke-width="2.40" stroke-linecap="round"/><circle cx="8.0" cy="51.5" r="2.3" fill="#33F0FF"/><line x1="8.0" y1="53.5" x2="8.0" y2="58.0" stroke="#33F0FF" stroke-width="1.30" stroke-linecap="round"/><line x1="8.0" y1="54.5" x2="5.5" y2="55.5" stroke="#33F0FF" stroke-width="1.30" stroke-linecap="round"/><line x1="8.0" y1="54.5" x2="11.0" y2="51.0" stroke="#33F0FF" stroke-width="1.30" stroke-linecap="round"/><line x1="8.0" y1="58.0" x2="6.4" y2="62.0" stroke="#33F0FF" stroke-width="1.30" stroke-linecap="round"/><line x1="8.0" y1="58.0" x2="9.6" y2="62.0" stroke="#33F0FF" stroke-width="1.30" stroke-linecap="round"/></g><g><circle cx="24.0" cy="51.5" r="2.9" fill="#101018"/><line x1="24.0" y1="53.5" x2="24.0" y2="58.0" stroke="#101018" stroke-width="2.40" stroke-linecap="round"/><line x1="24.0" y1="54.5" x2="21.5" y2="55.5" stroke="#101018" stroke-width="2.40" stroke-linecap="round"/><line x1="24.0" y1="54.5" x2="27.6" y2="51.0" stroke="#101018" stroke-width="2.40" stroke-linecap="round"/><line x1="24.0" y1="58.0" x2="22.4" y2="62.0" stroke="#101018" stroke-width="2.40" stroke-linecap="round"/><line x1="24.0" y1="58.0" x2="25.6" y2="62.0" stroke="#101018" stroke-width="2.40" stroke-linecap="round"/><circle cx="24.0" cy="51.5" r="2.3" fill="#33F0FF"/><line x1="24.0" y1="53.5" x2="24.0" y2="58.0" stroke="#33F0FF" stroke-width="1.30" stroke-linecap="round"/><line x1="24.0" y1="54.5" x2="21.5" y2="55.5" stroke="#33F0FF" stroke-width="1.30" stroke-linecap="round"/><line x1="24.0" y1="54.5" x2="27.6" y2="51.0" stroke="#33F0FF" stroke-width="1.30" stroke-linecap="round"/><line x1="24.0" y1="58.0" x2="22.4" y2="62.0" stroke="#33F0FF" stroke-width="1.30" stroke-linecap="round"/><line x1="24.0" y1="58.0" x2="25.6" y2="62.0" stroke="#33F0FF" stroke-width="1.30" stroke-linecap="round"/></g><g><circle cx="40.0" cy="51.5" r="2.9" fill="#101018"/><line x1="40.0" y1="53.5" x2="40.0" y2="58.0" stroke="#101018" stroke-width="2.40" stroke-linecap="round"/><line x1="40.0" y1="54.5" x2="37.5" y2="55.5" stroke="#101018" stroke-width="2.40" stroke-linecap="round"/><line x1="40.0" y1="54.5" x2="43.0" y2="51.0" stroke="#101018" stroke-width="2.40" stroke-linecap="round"/><line x1="40.0" y1="58.0" x2="38.4" y2="62.0" stroke="#101018" stroke-width="2.40" stroke-linecap="round"/><line x1="40.0" y1="58.0" x2="41.6" y2="62.0" stroke="#101018" stroke-width="2.40" stroke-linecap="round"/><circle cx="40.0" cy="51.5" r="2.3" fill="#33F0FF"/><line x1="40.0" y1="53.5" x2="40.0" y2="58.0" stroke="#33F0FF" stroke-width="1.30" stroke-linecap="round"/><line x1="40.0" y1="54.5" x2="37.5" y2="55.5" stroke="#33F0FF" stroke-width="1.30" stroke-linecap="round"/><line x1="40.0" y1="54.5" x2="43.0" y2="51.0" stroke="#33F0FF" stroke-width="1.30" stroke-linecap="round"/><line x1="40.0" y1="58.0" x2="38.4" y2="62.0" stroke="#33F0FF" stroke-width="1.30" stroke-linecap="round"/><line x1="40.0" y1="58.0" x2="41.6" y2="62.0" stroke="#33F0FF" stroke-width="1.30" stroke-linecap="round"/></g><g><circle cx="56.0" cy="51.5" r="2.9" fill="#101018"/><line x1="56.0" y1="53.5" x2="56.0" y2="58.0" stroke="#101018" stroke-width="2.40" stroke-linecap="round"/><line x1="56.0" y1="54.5" x2="53.5" y2="55.5" stroke="#101018" stroke-width="2.40" stroke-linecap="round"/><line x1="56.0" y1="54.5" x2="58.4" y2="51.0" stroke="#101018" stroke-width="2.40" stroke-linecap="round"/><line x1="56.0" y1="58.0" x2="54.4" y2="62.0" stroke="#101018" stroke-width="2.40" stroke-linecap="round"/><line x1="56.0" y1="58.0" x2="57.6" y2="62.0" stroke="#101018" stroke-width="2.40" stroke-linecap="round"/><circle cx="56.0" cy="51.5" r="2.3" fill="#33F0FF"/><line x1="56.0" y1="53.5" x2="56.0" y2="58.0" stroke="#33F0FF" stroke-width="1.30" stroke-linecap="round"/><line x1="56.0" y1="54.5" x2="53.5" y2="55.5" stroke="#33F0FF" stroke-width="1.30" stroke-linecap="round"/><line x1="56.0" y1="54.5" x2="58.4" y2="51.0" stroke="#33F0FF" stroke-width="1.30" stroke-linecap="round"/><line x1="56.0" y1="58.0" x2="54.4" y2="62.0" stroke="#33F0FF" stroke-width="1.30" stroke-linecap="round"/><line x1="56.0" y1="58.0" x2="57.6" y2="62.0" stroke="#33F0FF" stroke-width="1.30" stroke-linecap="round"/></g>
</svg>
